<?xml version="1.0" encoding="UTF-8"?>
<svg width="500px" height="500px" viewBox="0 0 500 500" version="1.1" xmlns="http://www.w3.org/2000/svg" xmlns:xlink="http://www.w3.org/1999/xlink">
    <!-- Generator: Sketch 57.1 (83088) - https://sketch.com -->
    <title>Artboard</title>
    <desc>Created with Sketch.</desc>
    <defs>
        <path d="M81.26,420.7 C76.3133086,420.7 71.8450199,419.615011 67.855,417.445 C63.86498,415.274989 60.7383447,412.276686 58.475,408.45 C56.2116554,404.623314 55.08,400.306691 55.08,395.5 C55.08,390.693309 56.2233219,386.376686 58.51,382.55 C60.7966781,378.723314 63.9349801,375.725011 67.925,373.555 C71.91502,371.384989 76.3833086,370.3 81.33,370.3 C85.3433534,370.3 89.0066501,370.999993 92.32,372.4 C95.6333499,373.8 98.4333219,375.829987 100.72,378.49 L94.84,384.02 C91.2933156,380.193314 86.9300259,378.28 81.75,378.28 C78.3899832,378.28 75.3800133,379.014993 72.72,380.485 C70.0599867,381.955007 67.9833408,383.996654 66.49,386.61 C64.9966592,389.223346 64.25,392.18665 64.25,395.5 C64.25,398.81335 64.9966592,401.776654 66.49,404.39 C67.9833408,407.003346 70.0599867,409.044993 72.72,410.515 C75.3800133,411.985007 78.3899832,412.72 81.75,412.72 C86.9300259,412.72 91.2933156,410.783353 94.84,406.91 L100.72,412.51 C98.4333219,415.170013 95.6216834,417.199993 92.285,418.6 C88.9483167,420.000007 85.2733534,420.7 81.26,420.7 Z M124.03,420.49 C120.249981,420.49 116.843349,419.673341 113.81,418.04 C110.776652,416.406658 108.408342,414.131681 106.705,411.215 C105.001658,408.298319 104.15,404.996685 104.15,401.31 C104.15,397.623315 105.001658,394.333348 106.705,391.44 C108.408342,388.546652 110.776652,386.283342 113.81,384.65 C116.843349,383.016659 120.249981,382.2 124.03,382.2 C127.856686,382.2 131.286652,383.016659 134.32,384.65 C137.353349,386.283342 139.721658,388.546652 141.425,391.44 C143.128342,394.333348 143.98,397.623315 143.98,401.31 C143.98,404.996685 143.128342,408.298319 141.425,411.215 C139.721658,414.131681 137.353349,416.406658 134.32,418.04 C131.286652,419.673341 127.856686,420.49 124.03,420.49 Z M124.03,413 C127.250016,413 129.909989,411.926677 132.01,409.78 C134.11001,407.633323 135.16,404.810018 135.16,401.31 C135.16,397.809982 134.11001,394.986677 132.01,392.84 C129.909989,390.693323 127.250016,389.62 124.03,389.62 C120.809984,389.62 118.161677,390.693323 116.085,392.84 C114.008323,394.986677 112.97,397.809982 112.97,401.31 C112.97,404.810018 114.008323,407.633323 116.085,409.78 C118.161677,411.926677 120.809984,413 124.03,413 Z M188.57,382.62 L188.57,420 L180.24,420 L180.24,415.24 C178.839993,416.920008 177.090011,418.214995 174.99,419.125 C172.88999,420.035005 170.626679,420.49 168.2,420.49 C163.206642,420.49 159.275014,419.101681 156.405,416.325 C153.534986,413.548319 152.1,409.430027 152.1,403.97 L152.1,382.62 L160.85,382.62 L160.85,402.78 C160.85,406.140017 161.608326,408.648325 163.125,410.305 C164.641674,411.961675 166.799986,412.79 169.6,412.79 C172.726682,412.79 175.211657,411.821676 177.055,409.885 C178.898343,407.948324 179.82,405.160018 179.82,401.52 L179.82,382.62 L188.57,382.62 Z M221.26,382.2 C225.973357,382.2 229.753319,383.576653 232.6,386.33 C235.446681,389.083347 236.87,393.16664 236.87,398.58 L236.87,420 L228.12,420 L228.12,399.7 C228.12,396.433317 227.350008,393.971675 225.81,392.315 C224.269992,390.658325 222.076681,389.83 219.23,389.83 C216.009984,389.83 213.466676,390.798324 211.6,392.735 C209.733324,394.671676 208.8,397.459982 208.8,401.1 L208.8,420 L200.05,420 L200.05,382.62 L208.38,382.62 L208.38,387.45 C209.826674,385.723325 211.646656,384.416671 213.84,383.53 C216.033344,382.643329 218.506653,382.2 221.26,382.2 Z M270.47,417.97 C269.443328,418.810004 268.195007,419.439998 266.725,419.86 C265.254993,420.280002 263.703341,420.49 262.07,420.49 C257.963313,420.49 254.790011,419.416677 252.55,417.27 C250.309989,415.123323 249.19,411.996687 249.19,407.89 L249.19,389.9 L243.03,389.9 L243.03,382.9 L249.19,382.9 L249.19,374.36 L257.94,374.36 L257.94,382.9 L267.95,382.9 L267.95,389.9 L257.94,389.9 L257.94,407.68 C257.94,409.500009 258.383329,410.888329 259.27,411.845 C260.156671,412.801671 261.439992,413.28 263.12,413.28 C265.08001,413.28 266.713327,412.766672 268.02,411.74 L270.47,417.97 Z M301.2,420.7 C296.253309,420.7 291.78502,419.615011 287.795,417.445 C283.80498,415.274989 280.678345,412.276686 278.415,408.45 C276.151655,404.623314 275.02,400.306691 275.02,395.5 C275.02,390.693309 276.163322,386.376686 278.45,382.55 C280.736678,378.723314 283.87498,375.725011 287.865,373.555 C291.85502,371.384989 296.323309,370.3 301.27,370.3 C305.283353,370.3 308.94665,370.999993 312.26,372.4 C315.57335,373.8 318.373322,375.829987 320.66,378.49 L314.78,384.02 C311.233316,380.193314 306.870026,378.28 301.69,378.28 C298.329983,378.28 295.320013,379.014993 292.66,380.485 C289.999987,381.955007 287.923341,383.996654 286.43,386.61 C284.936659,389.223346 284.19,392.18665 284.19,395.5 C284.19,398.81335 284.936659,401.776654 286.43,404.39 C287.923341,407.003346 289.999987,409.044993 292.66,410.515 C295.320013,411.985007 298.329983,412.72 301.69,412.72 C306.870026,412.72 311.233316,410.783353 314.78,406.91 L320.66,412.51 C318.373322,415.170013 315.561683,417.199993 312.225,418.6 C308.888317,420.000007 305.213353,420.7 301.2,420.7 Z M342.5,382.2 C348.006694,382.2 352.218319,383.51832 355.135,386.155 C358.051681,388.79168 359.51,392.769973 359.51,398.09 L359.51,420 L351.25,420 L351.25,415.45 C350.176661,417.083342 348.648343,418.331662 346.665,419.195 C344.681657,420.058338 342.290014,420.49 339.49,420.49 C336.689986,420.49 334.240011,420.011671 332.14,419.055 C330.03999,418.098329 328.418339,416.768342 327.275,415.065 C326.131661,413.361658 325.56,411.436677 325.56,409.29 C325.56,405.929983 326.808321,403.23501 329.305,401.205 C331.801679,399.17499 335.733307,398.16 341.1,398.16 L350.76,398.16 L350.76,397.6 C350.76,394.986654 349.978341,392.980007 348.415,391.58 C346.851659,390.179993 344.530015,389.48 341.45,389.48 C339.34999,389.48 337.28501,389.806663 335.255,390.46 C333.22499,391.113337 331.510007,392.023327 330.11,393.19 L326.68,386.82 C328.64001,385.326659 330.996653,384.183337 333.75,383.39 C336.503347,382.596663 339.419985,382.2 342.5,382.2 Z M341.31,414.12 C343.503344,414.12 345.451658,413.618338 347.155,412.615 C348.858342,411.611662 350.059997,410.176676 350.76,408.31 L350.76,403.97 L341.73,403.97 C336.689975,403.97 334.17,405.62665 334.17,408.94 C334.17,410.526675 334.799994,411.786662 336.06,412.72 C337.320006,413.653338 339.069989,414.12 341.31,414.12 Z M382.26,420.49 C379.226652,420.49 376.263348,420.093337 373.37,419.3 C370.476652,418.506663 368.166675,417.503339 366.44,416.29 L369.8,409.64 C371.480008,410.760006 373.498322,411.65833 375.855,412.335 C378.211678,413.01167 380.533322,413.35 382.82,413.35 C388.046693,413.35 390.66,411.973347 390.66,409.22 C390.66,407.913327 389.995007,407.003336 388.665,406.49 C387.334993,405.976664 385.200015,405.486669 382.26,405.02 C379.179985,404.553331 376.671676,404.01667 374.735,403.41 C372.798324,402.80333 371.11834,401.741674 369.695,400.225 C368.27166,398.708326 367.56,396.59668 367.56,393.89 C367.56,390.343316 369.041652,387.508344 372.005,385.385 C374.968348,383.261656 378.969975,382.2 384.01,382.2 C386.57668,382.2 389.143321,382.491664 391.71,383.075 C394.27668,383.658336 396.376659,384.439995 398.01,385.42 L394.65,392.07 C391.476651,390.203324 387.906687,389.27 383.94,389.27 C381.373321,389.27 379.425007,389.654996 378.095,390.425 C376.764993,391.195004 376.1,392.209994 376.1,393.47 C376.1,394.870007 376.81166,395.861664 378.235,396.445 C379.65834,397.028336 381.863318,397.576664 384.85,398.09 C387.836682,398.556669 390.286657,399.09333 392.2,399.7 C394.113343,400.30667 395.758326,401.333326 397.135,402.78 C398.511674,404.226674 399.2,406.279987 399.2,408.94 C399.2,412.440018 397.683349,415.239989 394.65,417.34 C391.616651,419.44001 387.486693,420.49 382.26,420.49 Z M427.97,382.2 C432.683357,382.2 436.463319,383.576653 439.31,386.33 C442.156681,389.083347 443.58,393.16664 443.58,398.58 L443.58,420 L434.83,420 L434.83,399.7 C434.83,396.433317 434.060008,393.971675 432.52,392.315 C430.979992,390.658325 428.786681,389.83 425.94,389.83 C422.719984,389.83 420.176676,390.798324 418.31,392.735 C416.443324,394.671676 415.51,397.459982 415.51,401.1 L415.51,420 L406.76,420 L406.76,368.06 L415.51,368.06 L415.51,386.96 C416.956674,385.419992 418.741656,384.241671 420.865,383.425 C422.988344,382.608329 425.356654,382.2 427.97,382.2 Z" id="path-1"></path>
    </defs>
    <g id="Artboard" stroke="none" stroke-width="1" fill="none" fill-rule="evenodd">
        <rect fill="#38BEC9" x="0" y="0" width="500" height="500"></rect>
        <g id="$" transform="translate(185.000000, 63.000000)" fill-rule="nonzero">
            <g id="path-1-link" fill="#49494A">
                <path d="M50.5460526,220.42556 C40.5394241,219.005743 31.1530041,216.16615 22.3865132,211.906698 C13.6200222,207.647245 6.15792553,202.367378 0,196.066938 L9.75,181.025822 C10.6052674,179.69475 11.73848,178.607712 13.1496711,177.764695 C14.5608621,176.921678 16.0361765,176.500177 17.5756579,176.500177 C19.4572462,176.500177 21.4670941,177.18789 23.6052632,178.563339 C25.7434313,179.938787 28.1809074,181.558241 30.9177632,183.421752 C33.6546189,185.285262 36.7762978,187.148745 40.2828947,189.012256 C43.7894908,190.875766 47.9374761,192.251194 52.7269737,193.138579 L57.6019737,133.506544 C51.5295745,131.731772 45.5214115,129.646446 39.5773026,127.250504 C33.6331937,124.854562 28.2878529,121.682205 23.5411184,117.733338 C18.7943839,113.784471 14.9671198,108.793 12.0592105,102.758776 C9.15130125,96.7245513 7.69736842,89.1818841 7.69736842,80.1305478 C7.69736842,73.3864148 9.00163191,66.797673 11.6101974,60.3641253 C14.2187628,53.9305776 18.0032647,48.1848393 22.9638158,43.12674 C27.9243669,38.0686407 34.0394378,33.897989 41.3092105,30.6146611 C48.5789833,27.3313332 56.9177161,25.4678507 66.3256579,25.0241578 L67.7368421,8.25264778 C67.9078956,6.12292157 68.7631502,4.21507047 70.3026316,2.52903722 C71.8421053,0.843003977 73.8519617,0 76.3322368,0 L88.0065789,0 L85.8256579,26.2221228 C94.8914927,27.7306788 102.717073,30.3927967 109.302632,34.2085561 C115.88819,38.024316 121.618396,42.3280727 126.493421,47.1199567 L118.796053,59.2327139 C117.598684,61.0074857 116.401322,62.3385446 115.203947,63.2259306 C114.006573,64.1133165 112.55264,64.5570028 110.842105,64.5570028 C109.559204,64.5570028 108.041127,64.135501 106.287829,63.2924842 C104.534531,62.4494673 102.524682,61.4289893 100.258224,60.2310181 C97.9917652,59.0330468 95.4901453,57.8129097 92.7532895,56.5705694 C90.0164337,55.3282292 86.9802794,54.3077511 83.6447368,53.5091033 L79.1546053,108.615493 C85.3125308,110.567742 91.4062201,112.719621 97.4358553,115.071194 C103.46549,117.422766 108.896358,120.462017 113.728618,124.189038 C118.560879,127.916059 122.473669,132.552581 125.467105,138.098743 C128.460541,143.644905 129.957237,150.588596 129.957237,158.930023 C129.957237,167.182713 128.631592,174.925038 125.980263,182.157234 C123.328934,189.389429 119.458907,195.778512 114.370066,201.324674 C109.281224,206.870835 103.016484,211.374251 95.5756579,214.835057 C88.1348316,218.295862 79.6250479,220.381187 70.0460526,221.091096 L68.5065789,240.657858 C68.3355255,242.698846 67.4802709,244.584512 65.9407895,246.314915 C64.4013081,248.045317 62.3914602,248.910506 59.9111842,248.910506 L48.2368421,248.910506 L50.5460526,220.42556 Z M99.9375,163.988098 C99.9375,160.616031 99.3602034,157.665517 98.2055921,155.136468 C97.0509809,152.607418 95.4259971,150.366802 93.3305921,148.414553 C91.2351871,146.462304 88.7763295,144.776296 85.9539474,143.356478 C83.1315644,141.936661 80.0526478,140.649971 76.7171053,139.496369 L72.3552632,193.537901 C81.421098,192.295567 88.2845164,189.123204 92.9457237,184.020735 C97.606931,178.918265 99.9375,172.240786 99.9375,163.988098 Z M37.5888158,76.9359744 C37.5888158,80.3080409 38.1447309,83.2807387 39.2565789,85.8541583 C40.3684262,88.4275771 41.9292661,90.7125622 43.9391447,92.7091803 C45.9490234,94.7057984 48.3223547,96.4805436 51.0592105,98.0334692 C53.7960663,99.5863947 56.7894574,100.984006 60.0394737,102.226347 L64.0164474,52.9766744 C59.3124761,53.5978441 55.2927794,54.6405076 51.9572368,56.1046942 C48.6216934,57.5688807 45.8848795,59.3658105 43.7467105,61.4955367 C41.6085424,63.6252629 40.0477025,65.9989844 39.0641447,68.6167731 C38.080587,71.2345617 37.5888158,74.0076005 37.5888158,76.9359744 Z" id="path-1"></path>
            </g>
            <g id="path-1-link" fill="#FFFFFF">
                <path d="M50.5460526,220.42556 C40.5394241,219.005743 31.1530041,216.16615 22.3865132,211.906698 C13.6200222,207.647245 6.15792553,202.367378 0,196.066938 L9.75,181.025822 C10.6052674,179.69475 11.73848,178.607712 13.1496711,177.764695 C14.5608621,176.921678 16.0361765,176.500177 17.5756579,176.500177 C19.4572462,176.500177 21.4670941,177.18789 23.6052632,178.563339 C25.7434313,179.938787 28.1809074,181.558241 30.9177632,183.421752 C33.6546189,185.285262 36.7762978,187.148745 40.2828947,189.012256 C43.7894908,190.875766 47.9374761,192.251194 52.7269737,193.138579 L57.6019737,133.506544 C51.5295745,131.731772 45.5214115,129.646446 39.5773026,127.250504 C33.6331937,124.854562 28.2878529,121.682205 23.5411184,117.733338 C18.7943839,113.784471 14.9671198,108.793 12.0592105,102.758776 C9.15130125,96.7245513 7.69736842,89.1818841 7.69736842,80.1305478 C7.69736842,73.3864148 9.00163191,66.797673 11.6101974,60.3641253 C14.2187628,53.9305776 18.0032647,48.1848393 22.9638158,43.12674 C27.9243669,38.0686407 34.0394378,33.897989 41.3092105,30.6146611 C48.5789833,27.3313332 56.9177161,25.4678507 66.3256579,25.0241578 L67.7368421,8.25264778 C67.9078956,6.12292157 68.7631502,4.21507047 70.3026316,2.52903722 C71.8421053,0.843003977 73.8519617,0 76.3322368,0 L88.0065789,0 L85.8256579,26.2221228 C94.8914927,27.7306788 102.717073,30.3927967 109.302632,34.2085561 C115.88819,38.024316 121.618396,42.3280727 126.493421,47.1199567 L118.796053,59.2327139 C117.598684,61.0074857 116.401322,62.3385446 115.203947,63.2259306 C114.006573,64.1133165 112.55264,64.5570028 110.842105,64.5570028 C109.559204,64.5570028 108.041127,64.135501 106.287829,63.2924842 C104.534531,62.4494673 102.524682,61.4289893 100.258224,60.2310181 C97.9917652,59.0330468 95.4901453,57.8129097 92.7532895,56.5705694 C90.0164337,55.3282292 86.9802794,54.3077511 83.6447368,53.5091033 L79.1546053,108.615493 C85.3125308,110.567742 91.4062201,112.719621 97.4358553,115.071194 C103.46549,117.422766 108.896358,120.462017 113.728618,124.189038 C118.560879,127.916059 122.473669,132.552581 125.467105,138.098743 C128.460541,143.644905 129.957237,150.588596 129.957237,158.930023 C129.957237,167.182713 128.631592,174.925038 125.980263,182.157234 C123.328934,189.389429 119.458907,195.778512 114.370066,201.324674 C109.281224,206.870835 103.016484,211.374251 95.5756579,214.835057 C88.1348316,218.295862 79.6250479,220.381187 70.0460526,221.091096 L68.5065789,240.657858 C68.3355255,242.698846 67.4802709,244.584512 65.9407895,246.314915 C64.4013081,248.045317 62.3914602,248.910506 59.9111842,248.910506 L48.2368421,248.910506 L50.5460526,220.42556 Z M99.9375,163.988098 C99.9375,160.616031 99.3602034,157.665517 98.2055921,155.136468 C97.0509809,152.607418 95.4259971,150.366802 93.3305921,148.414553 C91.2351871,146.462304 88.7763295,144.776296 85.9539474,143.356478 C83.1315644,141.936661 80.0526478,140.649971 76.7171053,139.496369 L72.3552632,193.537901 C81.421098,192.295567 88.2845164,189.123204 92.9457237,184.020735 C97.606931,178.918265 99.9375,172.240786 99.9375,163.988098 Z M37.5888158,76.9359744 C37.5888158,80.3080409 38.1447309,83.2807387 39.2565789,85.8541583 C40.3684262,88.4275771 41.9292661,90.7125622 43.9391447,92.7091803 C45.9490234,94.7057984 48.3223547,96.4805436 51.0592105,98.0334692 C53.7960663,99.5863947 56.7894574,100.984006 60.0394737,102.226347 L64.0164474,52.9766744 C59.3124761,53.5978441 55.2927794,54.6405076 51.9572368,56.1046942 C48.6216934,57.5688807 45.8848795,59.3658105 43.7467105,61.4955367 C41.6085424,63.6252629 40.0477025,65.9989844 39.0641447,68.6167731 C38.080587,71.2345617 37.5888158,74.0076005 37.5888158,76.9359744 Z" id="path-1"></path>
            </g>
        </g>
        <g id="CountCash" fill-rule="nonzero">
            <use fill="#49494A" xlink:href="#path-1"></use>
            <use fill="#FFFFFF" xlink:href="#path-1"></use>
        </g>
    </g>
</svg>