<?xml version="1.0" encoding="UTF-8"?>
<svg width="500px" height="500px" viewBox="0 0 500 500" version="1.1" xmlns="http://www.w3.org/2000/svg" xmlns:xlink="http://www.w3.org/1999/xlink">
    <!-- Generator: Sketch 57.1 (83088) - https://sketch.com -->
    <title>Artboard</title>
    <desc>Created with Sketch.</desc>
    <g id="Artboard" stroke="none" stroke-width="1" fill="none" fill-rule="evenodd">
        <rect fill="#38BEC9" x="0" y="0" width="500" height="500"></rect>
        <g id="$" transform="translate(185.000000, 63.000000)" fill-rule="nonzero">
            <g id="path-1-link" fill="#49494A">
                <path d="M50.5460526,220.42556 C40.5394241,219.005743 31.1530041,216.16615 22.3865132,211.906698 C13.6200222,207.647245 6.15792553,202.367378 0,196.066938 L9.75,181.025822 C10.6052674,179.69475 11.73848,178.607712 13.1496711,177.764695 C14.5608621,176.921678 16.0361765,176.500177 17.5756579,176.500177 C19.4572462,176.500177 21.4670941,177.18789 23.6052632,178.563339 C25.7434313,179.938787 28.1809074,181.558241 30.9177632,183.421752 C33.6546189,185.285262 36.7762978,187.148745 40.2828947,189.012256 C43.7894908,190.875766 47.9374761,192.251194 52.7269737,193.138579 L57.6019737,133.506544 C51.5295745,131.731772 45.5214115,129.646446 39.5773026,127.250504 C33.6331937,124.854562 28.2878529,121.682205 23.5411184,117.733338 C18.7943839,113.784471 14.9671198,108.793 12.0592105,102.758776 C9.15130125,96.7245513 7.69736842,89.1818841 7.69736842,80.1305478 C7.69736842,73.3864148 9.00163191,66.797673 11.6101974,60.3641253 C14.2187628,53.9305776 18.0032647,48.1848393 22.9638158,43.12674 C27.9243669,38.0686407 34.0394378,33.897989 41.3092105,30.6146611 C48.5789833,27.3313332 56.9177161,25.4678507 66.3256579,25.0241578 L67.7368421,8.25264778 C67.9078956,6.12292157 68.7631502,4.21507047 70.3026316,2.52903722 C71.8421053,0.843003977 73.8519617,0 76.3322368,0 L88.0065789,0 L85.8256579,26.2221228 C94.8914927,27.7306788 102.717073,30.3927967 109.302632,34.2085561 C115.88819,38.024316 121.618396,42.3280727 126.493421,47.1199567 L118.796053,59.2327139 C117.598684,61.0074857 116.401322,62.3385446 115.203947,63.2259306 C114.006573,64.1133165 112.55264,64.5570028 110.842105,64.5570028 C109.559204,64.5570028 108.041127,64.135501 106.287829,63.2924842 C104.534531,62.4494673 102.524682,61.4289893 100.258224,60.2310181 C97.9917652,59.0330468 95.4901453,57.8129097 92.7532895,56.5705694 C90.0164337,55.3282292 86.9802794,54.3077511 83.6447368,53.5091033 L79.1546053,108.615493 C85.3125308,110.567742 91.4062201,112.719621 97.4358553,115.071194 C103.46549,117.422766 108.896358,120.462017 113.728618,124.189038 C118.560879,127.916059 122.473669,132.552581 125.467105,138.098743 C128.460541,143.644905 129.957237,150.588596 129.957237,158.930023 C129.957237,167.182713 128.631592,174.925038 125.980263,182.157234 C123.328934,189.389429 119.458907,195.778512 114.370066,201.324674 C109.281224,206.870835 103.016484,211.374251 95.5756579,214.835057 C88.1348316,218.295862 79.6250479,220.381187 70.0460526,221.091096 L68.5065789,240.657858 C68.3355255,242.698846 67.4802709,244.584512 65.9407895,246.314915 C64.4013081,248.045317 62.3914602,248.910506 59.9111842,248.910506 L48.2368421,248.910506 L50.5460526,220.42556 Z M99.9375,163.988098 C99.9375,160.616031 99.3602034,157.665517 98.2055921,155.136468 C97.0509809,152.607418 95.4259971,150.366802 93.3305921,148.414553 C91.2351871,146.462304 88.7763295,144.776296 85.9539474,143.356478 C83.1315644,141.936661 80.0526478,140.649971 76.7171053,139.496369 L72.3552632,193.537901 C81.421098,192.295567 88.2845164,189.123204 92.9457237,184.020735 C97.606931,178.918265 99.9375,172.240786 99.9375,163.988098 Z M37.5888158,76.9359744 C37.5888158,80.3080409 38.1447309,83.2807387 39.2565789,85.8541583 C40.3684262,88.4275771 41.9292661,90.7125622 43.9391447,92.7091803 C45.9490234,94.7057984 48.3223547,96.4805436 51.0592105,98.0334692 C53.7960663,99.5863947 56.7894574,100.984006 60.0394737,102.226347 L64.0164474,52.9766744 C59.3124761,53.5978441 55.2927794,54.6405076 51.9572368,56.1046942 C48.6216934,57.5688807 45.8848795,59.3658105 43.7467105,61.4955367 C41.6085424,63.6252629 40.0477025,65.9989844 39.0641447,68.6167731 C38.080587,71.2345617 37.5888158,74.0076005 37.5888158,76.9359744 Z" id="path-1"></path>
            </g>
            <g id="path-1-link" fill="#FFFFFF">
                <path d="M50.5460526,220.42556 C40.5394241,219.005743 31.1530041,216.16615 22.3865132,211.906698 C13.6200222,207.647245 6.15792553,202.367378 0,196.066938 L9.75,181.025822 C10.6052674,179.69475 11.73848,178.607712 13.1496711,177.764695 C14.5608621,176.921678 16.0361765,176.500177 17.5756579,176.500177 C19.4572462,176.500177 21.4670941,177.18789 23.6052632,178.563339 C25.7434313,179.938787 28.1809074,181.558241 30.9177632,183.421752 C33.6546189,185.285262 36.7762978,187.148745 40.2828947,189.012256 C43.7894908,190.875766 47.9374761,192.251194 52.7269737,193.138579 L57.6019737,133.506544 C51.5295745,131.731772 45.5214115,129.646446 39.5773026,127.250504 C33.6331937,124.854562 28.2878529,121.682205 23.5411184,117.733338 C18.7943839,113.784471 14.9671198,108.793 12.0592105,102.758776 C9.15130125,96.7245513 7.69736842,89.1818841 7.69736842,80.1305478 C7.69736842,73.3864148 9.00163191,66.797673 11.6101974,60.3641253 C14.2187628,53.9305776 18.0032647,48.1848393 22.9638158,43.12674 C27.9243669,38.0686407 34.0394378,33.897989 41.3092105,30.6146611 C48.5789833,27.3313332 56.9177161,25.4678507 66.3256579,25.0241578 L67.7368421,8.25264778 C67.9078956,6.12292157 68.7631502,4.21507047 70.3026316,2.52903722 C71.8421053,0.843003977 73.8519617,0 76.3322368,0 L88.0065789,0 L85.8256579,26.2221228 C94.8914927,27.7306788 102.717073,30.3927967 109.302632,34.2085561 C115.88819,38.024316 121.618396,42.3280727 126.493421,47.1199567 L118.796053,59.2327139 C117.598684,61.0074857 116.401322,62.3385446 115.203947,63.2259306 C114.006573,64.1133165 112.55264,64.5570028 110.842105,64.5570028 C109.559204,64.5570028 108.041127,64.135501 106.287829,63.2924842 C104.534531,62.4494673 102.524682,61.4289893 100.258224,60.2310181 C97.9917652,59.0330468 95.4901453,57.8129097 92.7532895,56.5705694 C90.0164337,55.3282292 86.9802794,54.3077511 83.6447368,53.5091033 L79.1546053,108.615493 C85.3125308,110.567742 91.4062201,112.719621 97.4358553,115.071194 C103.46549,117.422766 108.896358,120.462017 113.728618,124.189038 C118.560879,127.916059 122.473669,132.552581 125.467105,138.098743 C128.460541,143.644905 129.957237,150.588596 129.957237,158.930023 C129.957237,167.182713 128.631592,174.925038 125.980263,182.157234 C123.328934,189.389429 119.458907,195.778512 114.370066,201.324674 C109.281224,206.870835 103.016484,211.374251 95.5756579,214.835057 C88.1348316,218.295862 79.6250479,220.381187 70.0460526,221.091096 L68.5065789,240.657858 C68.3355255,242.698846 67.4802709,244.584512 65.9407895,246.314915 C64.4013081,248.045317 62.3914602,248.910506 59.9111842,248.910506 L48.2368421,248.910506 L50.5460526,220.42556 Z M99.9375,163.988098 C99.9375,160.616031 99.3602034,157.665517 98.2055921,155.136468 C97.0509809,152.607418 95.4259971,150.366802 93.3305921,148.414553 C91.2351871,146.462304 88.7763295,144.776296 85.9539474,143.356478 C83.1315644,141.936661 80.0526478,140.649971 76.7171053,139.496369 L72.3552632,193.537901 C81.421098,192.295567 88.2845164,189.123204 92.9457237,184.020735 C97.606931,178.918265 99.9375,172.240786 99.9375,163.988098 Z M37.5888158,76.9359744 C37.5888158,80.3080409 38.1447309,83.2807387 39.2565789,85.8541583 C40.3684262,88.4275771 41.9292661,90.7125622 43.9391447,92.7091803 C45.9490234,94.7057984 48.3223547,96.4805436 51.0592105,98.0334692 C53.7960663,99.5863947 56.7894574,100.984006 60.0394737,102.226347 L64.0164474,52.9766744 C59.3124761,53.5978441 55.2927794,54.6405076 51.9572368,56.1046942 C48.6216934,57.5688807 45.8848795,59.3658105 43.7467105,61.4955367 C41.6085424,63.6252629 40.0477025,65.9989844 39.0641447,68.6167731 C38.080587,71.2345617 37.5888158,74.0076005 37.5888158,76.9359744 Z" id="path-1"></path>
            </g>
        </g>
        <text id="CountCash" fill="#FFFFFF" font-family="Montserrat-SemiBold, Montserrat" font-size="70" font-weight="500">
            <tspan x="52" y="420">CountCash</tspan>
        </text>
    </g>
</svg>