<?xml version="1.0" encoding="UTF-8"?>
<svg width="18px" height="19px" viewBox="0 0 18 19" version="1.1" xmlns="http://www.w3.org/2000/svg" xmlns:xlink="http://www.w3.org/1999/xlink">
    <!-- Generator: Sketch 57.1 (83088) - https://sketch.com -->
    <title>Path</title>
    <desc>Created with Sketch.</desc>
    <g id="Page-1" stroke="none" stroke-width="1" fill="none" fill-rule="evenodd">
        <g id="Add-Entry-w/-Money" transform="translate(-27.000000, -612.000000)" fill="#102A43" fill-rule="nonzero">
            <path d="M45.8467893,619.583333 C46.9053351,619.583333 47.763456,620.441454 47.763456,621.5 C47.763456,622.558546 46.9053351,623.416667 45.8467893,623.416667 L38.1801226,623.416667 L38.1801226,631.083333 C38.1801226,632.141879 37.3220017,633 36.263456,633 C35.2049102,633 34.3467893,632.141879 34.3467893,631.083333 L34.3467893,623.416667 L26.6801226,623.416667 C25.6215769,623.416667 24.763456,622.558546 24.763456,621.5 C24.763456,620.441454 25.6215769,619.583333 26.6801226,619.583333 L34.3467893,619.583333 L34.3467893,611.916667 C34.3467893,610.858121 35.2049102,610 36.263456,610 C37.3220017,610 38.1801226,610.858121 38.1801226,611.916667 L38.1801226,619.583333 L45.8467893,619.583333 Z" id="Path" transform="translate(36.263456, 621.500000) rotate(-45.000000) translate(-36.263456, -621.500000) "></path>
        </g>
    </g>
</svg>